<svg width="40" height="40" viewBox="0 0 40 40" fill="none" xmlns="http://www.w3.org/2000/svg">
<path d="M1.66088 12.8695L2.9366 15.9473C3.03588 16.1868 3.26505 16.347 3.52416 16.3581L14.5489 16.8385H14.5775C14.6651 16.8389 14.7517 16.8216 14.8328 16.7881L20.5333 14.4261L17.0281 22.2207L12.4669 24.0755C12.2266 24.1732 12.0649 24.401 12.0522 24.6601C12.0395 24.9189 12.1781 25.1618 12.4073 25.2825L14.2667 26.2588L13.7133 26.4879L14.2247 27.72L16.2582 26.876L16.2501 26.8568L21.6173 24.6735C21.6293 24.6686 21.6387 24.6595 21.6508 24.654C21.6843 24.6377 21.7162 24.6188 21.7468 24.5973C21.7673 24.5827 21.7875 24.568 21.8067 24.5514C21.8331 24.5273 21.8572 24.501 21.8787 24.4726C21.8969 24.4518 21.9132 24.4297 21.9275 24.4059C21.9333 24.3974 21.9408 24.3913 21.946 24.3821L29.7589 10.598L37.6195 7.33853C39.3194 6.63247 40.1254 4.68228 39.4193 2.98208C39.0154 2.01463 38.1814 1.29198 37.1661 1.02993L33.9389 0.20604C32.5411 -0.148777 31.0665 -0.0433086 29.7335 0.506822L10.144 8.62922L3.34089 7.24413C3.21036 7.21841 3.07527 7.23143 2.95222 7.28124L0.488678 8.30337C0.148835 8.44465 -0.0122982 8.83462 0.128652 9.17479L1.66088 12.8695ZM14.4607 15.5006L4.142 15.0514L13.6039 14.3747C13.6755 14.3701 13.7458 14.3535 13.8119 14.3262L22.1254 10.8779L21.3253 12.652L14.4607 15.5006ZM21.0815 23.1979L18.5554 22.0732L23.9148 10.1481L29.8842 7.67349L21.0815 23.1979ZM15.8422 25.5794L14.2996 24.7672L17.9727 23.2734L19.6622 24.0254L15.8422 25.5794ZM37.1088 6.10611L30.8288 8.70995L31.8953 6.82323L38.3282 4.15656C38.3757 4.99966 37.8874 5.78156 37.1088 6.10871V6.10611ZM30.2442 1.73794C31.3106 1.29881 32.4906 1.2145 33.6088 1.49803L34.0388 1.60806L30.7546 2.97004L31.2667 4.20148L36.1941 2.15884L36.8393 2.32388C37.2175 2.42544 37.5574 2.63605 37.8168 2.92935L13.4001 13.0527L3.47468 13.762L3.14883 12.9759L10.504 9.9479C10.5469 9.92772 10.5873 9.90265 10.6247 9.87336L30.2442 1.73794ZM3.27481 8.59146L7.94148 9.54198L2.63549 11.7422L1.61531 9.27928L3.27481 8.59146Z" fill="#3F4458"/>
<path d="M28.2915 3.99128L29.5233 3.48087L30.0337 4.71264L28.8019 5.22305L28.2915 3.99128Z" fill="#3F4458"/>
<path d="M25.8281 5.01237L27.0599 4.50195L27.5703 5.73372L26.3385 6.24414L25.8281 5.01237Z" fill="#3F4458"/>
<path d="M11.2485 27.5094L12.48 26.9986L12.9907 28.2304L11.759 28.7411L11.2485 27.5094Z" fill="#3F4458"/>
<path d="M8.78467 28.5313L10.0161 28.0205L10.5269 29.252L9.29541 29.763L8.78467 28.5313Z" fill="#3F4458"/>
<path d="M23.3716 6.04297L24.6034 5.53223L25.1141 6.764L23.882 7.27474L23.3716 6.04297Z" fill="#3F4458"/>
<path d="M39.3333 37.998H38.6667V33.3313C38.6667 32.9631 38.3682 32.6646 38 32.6646H33.3333V29.3313H35.3333V27.998H33.7454L35.2666 24.9625C35.2946 24.9052 35.3138 24.8437 35.3239 24.7805C35.3239 24.7665 35.3239 24.7525 35.3239 24.7385C35.332 24.6695 35.3288 24.5995 35.3148 24.5312C35.3148 24.5221 35.3148 24.5126 35.3148 24.5025L34.6481 21.8359C34.5736 21.539 34.3063 21.3307 34 21.3313H32V18.6646H30.6667V21.3313H28.6667C28.361 21.3313 28.0944 21.5393 28.0199 21.8359L27.3532 24.5025V24.5312C27.3392 24.5995 27.3363 24.6695 27.3441 24.7385V24.7805C27.3542 24.8437 27.3734 24.9052 27.4014 24.9625L28.9212 27.998H27.3333V29.3313H29.3333V32.6646H22C21.6318 32.6646 21.3333 32.9631 21.3333 33.3313V37.998H0.666667C0.298503 37.998 0 38.2965 0 38.6646C0 39.0328 0.298503 39.3313 0.666667 39.3313H39.3333C39.7015 39.3313 40 39.0328 40 38.6646C40 38.2965 39.7015 37.998 39.3333 37.998V37.998ZM37.3333 33.998V37.998H33.3333V33.998H37.3333ZM30.4121 27.998L29.0788 25.3313H33.5879L32.2546 27.998H30.4121ZM33.4785 22.6646L33.8118 23.998H28.8538L29.1872 22.6646H33.4785ZM32 29.3313V37.998H30.6667V29.3313H32ZM22.6667 33.998H29.3333V37.998H22.6667V33.998Z" fill="#3F4458"/>
<path d="M24 35.3315H25.3333V36.6648H24V35.3315Z" fill="#3F4458"/>
<path d="M26.6665 35.3315H27.9998V36.6648H26.6665V35.3315Z" fill="#3F4458"/>
<path d="M34.6665 35.3315H35.9998V36.6648H34.6665V35.3315Z" fill="#3F4458"/>
</svg>
