<svg width="42" height="42" viewBox="0 0 42 42" fill="none" xmlns="http://www.w3.org/2000/svg">
<path d="M30.1521 2.54686L7.07086 1.00303C6.31844 0.953189 5.66586 1.52374 5.61547 2.27592L5.43492 4.97569H2.36719C1.61336 4.97569 1 5.58905 1 6.34288V39.5824C1 40.3362 1.61336 40.9496 2.36719 40.9496H20.0345C20.1876 40.9496 20.3393 40.887 20.4479 40.7789L23.1149 38.1237C23.142 38.1294 23.1697 38.134 23.1981 38.1359L27.7514 38.4405C28.4781 38.4884 29.158 37.8973 29.2068 37.1676L31.425 4.00233C31.4749 3.25795 30.8964 2.59663 30.1521 2.54686V2.54686ZM20.6204 38.9455V34.8751C20.6204 34.7675 20.708 34.6798 20.8157 34.6798H24.8704L20.6204 38.9455ZM28.0375 37.0894C28.0184 37.2074 27.9491 37.268 27.8297 37.2712L24.2141 37.0294L26.6947 34.5598C26.8052 34.4498 26.8673 34.3004 26.8673 34.1445V6.34295C26.8673 5.58913 26.2539 4.97577 25.5001 4.97577H19.4069C18.6493 4.97577 18.6493 6.14764 19.4069 6.14764H25.5001C25.6078 6.14764 25.6954 6.2353 25.6954 6.34295V33.508H20.8157C20.0619 33.508 19.4485 34.1213 19.4485 34.8751V39.7777H2.36719C2.25953 39.7777 2.17188 39.6901 2.17188 39.5824V6.34295C2.17188 6.2353 2.25953 6.14764 2.36719 6.14764H16.2866C17.0441 6.14764 17.0441 4.97577 16.2866 4.97577H6.60938L6.78469 2.3542C6.80375 2.23616 6.87305 2.17561 6.99258 2.17241L30.0738 3.71616C30.1919 3.73522 30.2525 3.80452 30.2557 3.92405L28.0375 37.0894Z" fill="#3F4458" stroke="#3F4458" stroke-width="0.2"/>
<path d="M21.9241 19.4941H5.94336C5.61977 19.4941 5.35742 19.7565 5.35742 20.0801C5.35742 20.4037 5.61977 20.666 5.94336 20.666H21.9241C22.2477 20.666 22.51 20.4037 22.51 20.0801C22.51 19.7565 22.2477 19.4941 21.9241 19.4941Z" fill="#3F4458" stroke="#3F4458" stroke-width="0.2"/>
<path d="M21.9241 23.5789H5.94336C5.61977 23.5789 5.35742 23.8413 5.35742 24.1649C5.35742 24.4884 5.61977 24.7508 5.94336 24.7508H21.9241C22.2477 24.7508 22.51 24.4884 22.51 24.1649C22.51 23.8413 22.2477 23.5789 21.9241 23.5789Z" fill="#3F4458" stroke="#3F4458" stroke-width="0.2"/>
<path d="M5.35742 15.9953C5.35742 16.3189 5.61977 16.5812 5.94336 16.5812H21.9241C22.2477 16.5812 22.51 16.3189 22.51 15.9953C22.51 15.6717 22.2477 15.4094 21.9241 15.4094H5.94336C5.61977 15.4094 5.35742 15.6717 5.35742 15.9953Z" fill="#3F4458" stroke="#3F4458" stroke-width="0.2"/>
<path d="M8.17236 11.9106C8.17236 12.2341 8.43471 12.4965 8.7583 12.4965H19.1088C19.4324 12.4965 19.6948 12.2341 19.6948 11.9106C19.6948 11.587 19.4324 11.3246 19.1088 11.3246H8.7583C8.43471 11.3246 8.17236 11.587 8.17236 11.9106V11.9106Z" fill="#3F4458" stroke="#3F4458" stroke-width="0.2"/>
<path d="M16.2154 35.255C15.1615 35.2578 14.1077 35.2601 13.0539 35.2617C12.6996 35.2623 12.3455 35.2627 11.9914 35.263C11.3496 35.2634 10.9171 35.1346 10.7734 34.4287C10.6518 33.8318 9.80746 33.912 9.6434 34.4287C9.23793 35.705 8.56731 35.2049 8.19168 34.3464C7.81692 33.4899 7.72082 32.5313 7.55715 31.6198C7.43684 30.9501 6.42387 31.1378 6.40621 31.7756C6.38293 32.6155 6.30449 33.4421 6.09129 34.2567C5.87137 35.0972 5.54176 35.9049 5.21457 36.708C4.92934 37.408 6.06356 37.7092 6.34457 37.0195C6.63449 36.308 6.92481 35.5925 7.1409 34.8544C7.54246 35.82 8.37324 36.9122 9.55707 36.2685C9.77731 36.1487 9.98301 35.9785 10.1636 35.78C10.7792 36.4914 11.6955 36.4353 12.5529 36.4343C13.7738 36.4327 14.9947 36.4301 16.2155 36.4269C16.9693 36.4249 16.9707 35.253 16.2154 35.255V35.255Z" fill="#3F4458" stroke="#3F4458" stroke-width="0.2"/>
<path d="M40.526 20.2278C40.2216 19.9248 39.803 19.7694 39.378 19.7579L38.9352 19.7601V18.9227C38.9352 18.4126 38.6322 17.8737 38.1982 17.6054V16.4258C38.1982 13.9986 34.4192 14.0091 34.4192 16.4372V17.6169C33.977 17.8902 33.6805 18.3779 33.6805 18.9335V19.7915C31.73 19.9243 31.7245 22.8965 33.6827 23.0127C33.6952 25.6357 33.6945 28.2158 33.6805 30.8828C33.6767 31.6182 34.8484 31.6614 34.8524 30.889C34.8664 28.2197 34.867 25.6374 34.8546 23.0122L37.7617 22.9977C37.7617 22.9977 37.758 31.6577 37.758 35.5589C37.758 37.4604 34.8502 37.473 34.8502 35.5392L34.8513 34.4707C34.897 33.7144 33.7273 33.6439 33.6815 34.4V35.4027C33.6815 36.2621 33.9473 36.9899 34.4618 37.5018C34.5076 38.7279 35.0241 39.9142 35.8969 40.7797C36.1473 41.0281 36.4939 40.9522 36.7363 40.7654C37.6242 39.876 38.1245 38.7034 38.1557 37.4518C38.5425 37.0666 38.9298 36.6787 38.9298 35.3506L38.9302 30.0107C39.9435 30.2989 41.0001 29.5147 41.0001 28.4524V21.3686C41.0001 20.9372 40.8317 20.532 40.526 20.2278V20.2278ZM34.8524 19.7804V18.9334C34.8524 18.76 34.9713 18.6147 35.1315 18.5715L37.4772 18.5598C37.5428 18.5761 37.6034 18.6071 37.6524 18.656C37.7239 18.7272 37.7633 18.8218 37.7633 18.9227V19.766L34.8524 19.7804ZM36.311 15.7179C36.6707 15.7179 37.0263 16.0705 37.0263 16.4258V17.3763L35.5909 17.3834V16.4372C35.591 16.0425 35.9138 15.7198 36.311 15.7179V15.7179ZM36.3102 39.4601C36.0377 39.074 35.8407 38.6374 35.7307 38.1784C35.9121 38.2177 36.0959 38.2382 36.2797 38.2382C36.4849 38.2382 36.6901 38.2127 36.8921 38.1634C36.7848 38.6293 36.5881 39.0686 36.3102 39.4601ZM39.8282 28.4524C39.8282 29.0072 38.9335 29.0508 38.9335 28.4626C38.9335 28.4626 38.9345 22.9178 38.9352 22.4095C38.9356 22.0817 38.6631 21.8229 38.3447 21.8229L33.7831 21.8455C33.2173 21.8455 33.2305 20.9603 33.7888 20.9575L39.3838 20.9298C39.6543 20.9529 39.8024 21.0992 39.8281 21.3686V28.4524H39.8282Z" fill="#3F4458" stroke="#3F4458" stroke-width="0.2"/>
</svg>
