<svg width="40" height="41" viewBox="0 0 40 41" fill="none" xmlns="http://www.w3.org/2000/svg">
<path d="M19.9302 5.10062C20.3662 5.10062 20.7197 4.74712 20.7197 4.31107V0.789554C20.7197 0.3535 20.3662 0 19.9302 0C19.4941 0 19.1406 0.3535 19.1406 0.789554V4.31107C19.1407 4.74712 19.4942 5.10062 19.9302 5.10062Z" fill="#3F4458"/>
<path d="M39.2297 27.1249L37.8349 25.734C37.3387 25.2385 36.6774 24.9655 35.9727 24.9655C35.5222 24.9655 35.0897 25.0776 34.7064 25.2876L32.078 22.6624L32.206 22.5345C33.2723 21.4661 33.2719 19.7299 32.2059 18.6651C31.825 18.2835 31.3496 18.029 30.8315 17.9219C30.9028 17.6757 30.9404 17.4177 30.9404 17.1538C30.9404 16.4203 30.6555 15.7326 30.1398 15.219C29.7588 14.8374 29.2835 14.5829 28.7654 14.4758C28.8367 14.2296 28.8743 13.9717 28.8743 13.7077C28.8743 12.9742 28.5894 12.2865 28.0728 11.7721C27.6827 11.3825 27.2031 11.1359 26.6996 11.0309C26.9689 10.1021 26.7388 9.05712 26.0081 8.32519C25.3999 7.71956 24.5746 7.45928 23.7792 7.54363L18.5708 6.55777C17.7765 6.40708 16.7845 6.30744 16.1583 6.87858C16.1188 6.91464 16.0785 6.95611 16.0388 7.00229C15.0679 6.6484 13.9355 6.85913 13.1581 7.63575C12.6423 8.15091 12.3582 8.83831 12.3582 9.57134C12.3582 9.83539 12.3956 10.0932 12.4668 10.3396C11.9492 10.4466 11.4745 10.7008 11.0948 11.0811C10.578 11.5958 10.2931 12.2824 10.2925 13.0146C10.2923 13.2793 10.3298 13.538 10.4015 13.785C9.88366 13.8917 9.40864 14.1454 9.02778 14.5258C8.51097 15.0421 8.22638 15.7299 8.22638 16.4625C8.22638 17.0237 8.39392 17.5583 8.70438 18.0099C8.31239 18.1428 7.95332 18.3639 7.65266 18.6643C6.58565 19.7299 6.58526 21.4662 7.65337 22.5361L7.78092 22.6632L5.15221 25.2871C4.17528 24.8271 2.97163 24.9994 2.16545 25.8046L0.769798 27.1963C0.273377 27.6921 7.83988e-05 28.3535 0 29.0585C0 29.7637 0.273377 30.4251 0.769798 30.921L2.51158 32.6606C2.82008 32.9688 3.32003 32.9685 3.62814 32.66C3.93632 32.3515 3.93601 31.8516 3.62751 31.5435L1.88573 29.8038C1.688 29.6063 1.57911 29.3416 1.57911 29.0586C1.57911 28.7757 1.688 28.5111 1.88526 28.3141L3.28099 26.9222C3.62971 26.5739 4.16345 26.522 4.56877 26.7643C4.5973 26.8072 4.63031 26.848 4.6681 26.8859C4.73576 26.9537 4.81298 27.0057 4.89499 27.0437L12.899 35.0359C12.937 35.1188 12.9892 35.1968 13.0573 35.265C13.1236 35.3314 13.1993 35.3827 13.2796 35.4205C13.4488 35.6119 13.5424 35.8563 13.5424 36.1171C13.5424 36.4001 13.4335 36.6647 13.2358 36.8622L11.8414 38.2549C11.4294 38.665 10.7593 38.665 10.3486 38.2561L8.60678 36.5142C8.29843 36.2058 7.79856 36.2058 7.49022 36.5142C7.18188 36.8225 7.18188 37.3224 7.49022 37.6307L9.23326 39.3739C9.7463 39.8849 10.4201 40.1402 11.0941 40.1402C11.7684 40.1402 12.4429 39.8845 12.9566 39.3731L14.3518 37.9795C14.8482 37.4837 15.1216 36.8223 15.1216 36.1171C15.1216 35.6138 14.9816 35.1333 14.7214 34.7188L17.6799 31.764C17.683 31.7608 17.6861 31.7576 17.6894 31.7544C18.0281 31.4041 18.9715 31.4697 19.8838 31.533C20.532 31.5781 21.2547 31.6282 21.9608 31.5468L25.2005 34.7827C24.9906 35.1654 24.8786 35.5974 24.8786 36.0472C24.8786 36.7516 25.152 37.4126 25.6484 37.9085L27.0437 39.302C27.5398 39.7976 28.2011 40.0706 28.9057 40.0706C29.6103 40.0706 30.2716 39.7977 30.7678 39.302L39.2302 30.8499C39.7266 30.3541 40 29.6927 40 28.9876C39.9999 28.2825 39.7265 27.6212 39.2297 27.1249V27.1249ZM18.2768 8.10928L21.7018 8.75756L19.6518 10.8068C19.3346 10.6544 18.9 10.3701 18.4232 9.91402C17.7705 9.28965 17.3036 8.56877 17.2611 8.11916C17.2611 8.11892 17.2611 8.11869 17.2611 8.11845C17.2611 8.11837 17.261 8.1183 17.261 8.11822C17.2579 8.08592 17.2571 8.06012 17.2575 8.04045C17.3608 8.01536 17.635 7.98753 18.2768 8.10928ZM14.2739 8.75301C14.6739 8.35341 15.2953 8.30731 15.7473 8.61338C16.0034 9.68729 16.9195 10.6606 17.3316 11.055C17.6371 11.3472 18.6171 12.2235 19.6064 12.4643C19.7402 12.6562 19.813 12.8849 19.813 13.1262C19.813 13.437 19.6935 13.7277 19.4756 13.9453C19.2583 14.1629 18.9673 14.2827 18.6559 14.2827C18.3444 14.2827 18.0533 14.1629 17.835 13.9443L17.8349 13.9442L17.8345 13.9438L14.2738 10.3895C14.0567 10.1727 13.9372 9.88211 13.9372 9.57134C13.9373 9.26049 14.0568 8.96986 14.2739 8.75301V8.75301ZM12.2108 12.1984C12.428 11.9808 12.7188 11.861 13.0297 11.861C13.341 11.861 13.6328 11.9811 13.8514 12.1995L16.7186 15.061C17.1701 15.5132 17.1701 16.249 16.7202 16.6997C16.5018 16.9172 16.2097 17.037 15.8977 17.037C15.5858 17.037 15.2936 16.9172 15.0762 16.7006L15.0761 16.7005L12.9009 14.5258C12.8975 14.5225 12.8939 14.5193 12.8904 14.5159L12.2099 13.8357C11.9916 13.6176 11.8714 13.3264 11.8716 13.0158C11.8719 12.7062 11.9917 12.4165 12.2108 12.1984V12.1984ZM10.1437 15.6431C10.3611 15.426 10.6525 15.3064 10.9644 15.3064C11.2737 15.3064 11.5626 15.4243 11.779 15.6376L13.9609 17.8184C14.1784 18.0351 14.2983 18.3254 14.2983 18.6359C14.2983 18.9463 14.1784 19.2366 13.96 19.4541C13.7427 19.6711 13.4516 19.7907 13.1403 19.7907C12.8285 19.7907 12.5364 19.6708 12.3188 19.4541L11.5278 18.6641C11.5277 18.6639 11.5274 18.6637 11.5273 18.6636L10.1438 17.2817C9.92568 17.0638 9.80557 16.7728 9.80557 16.4624C9.80557 16.152 9.92568 15.8609 10.1437 15.6431V15.6431ZM8.76859 19.7814C8.98693 19.5633 9.27873 19.4432 9.59021 19.4432C9.90161 19.4432 10.1933 19.5633 10.4116 19.7812L11.2037 20.5723C11.4213 20.789 11.5411 21.0793 11.5411 21.3898C11.5411 21.7003 11.4212 21.9905 11.202 22.2089C10.9848 22.4265 10.6937 22.5463 10.3823 22.5463C10.0708 22.5463 9.7797 22.4265 9.56089 22.2073L9.46171 22.1086C9.46038 22.1072 9.45936 22.1058 9.45811 22.1046C9.45662 22.1031 9.45505 22.1019 9.45356 22.1005L8.76937 21.419C8.31788 20.9665 8.31748 20.232 8.76859 19.7814ZM24.8587 28.7548C24.5505 28.4462 24.0506 28.446 23.7421 28.7541L23.0397 29.4557C22.3722 30.1232 21.1627 30.0391 19.9931 29.958C18.723 29.8697 17.4095 29.7786 16.5596 30.6512L13.6514 33.5559L6.37892 26.294L8.95259 23.725C9.37798 23.9857 9.86884 24.1255 10.3824 24.1255C11.1162 24.1255 11.8042 23.8411 12.3181 23.3262C12.8354 22.811 13.1204 22.1234 13.1204 21.3899C13.1204 21.3831 13.12 21.3763 13.12 21.3695C13.1268 21.3696 13.1336 21.37 13.1404 21.37C13.8731 21.37 14.5606 21.0864 15.0752 20.5724C15.5926 20.0572 15.8776 19.3695 15.8776 18.636C15.8776 18.6292 15.8771 18.6225 15.8771 18.6157C15.884 18.6157 15.8909 18.6161 15.8979 18.6161C16.6303 18.6161 17.3182 18.3329 17.8363 17.8169C18.3741 17.2783 18.6401 16.5691 18.635 15.8614C18.6421 15.8614 18.6491 15.8618 18.6562 15.8618C19.3899 15.8617 20.0779 15.5774 20.5925 15.0618C21.1083 14.5466 21.3924 13.8592 21.3924 13.1262C21.3924 12.6135 21.253 12.1235 20.9932 11.6989L23.2489 9.4441C23.417 9.27672 23.6243 9.17166 23.8415 9.12831C23.8651 9.1258 23.8883 9.12203 23.9112 9.11749C24.2598 9.06943 24.6258 9.17699 24.8924 9.44245C25.3439 9.89473 25.3439 10.6306 24.894 11.0812L24.207 11.7654C24.2048 11.7677 24.2023 11.7697 24.2001 11.772L23.4088 12.5619C23.1002 12.87 23.0999 13.37 23.4081 13.6785C23.7163 13.9871 24.2162 13.9873 24.5246 13.6792L25.2144 12.9904C25.2145 12.9902 25.2147 12.9901 25.2149 12.9899L25.3191 12.886C25.7719 12.4374 26.5054 12.4384 26.9577 12.89C27.1753 13.1067 27.2952 13.397 27.2952 13.7075C27.2952 14.0179 27.1753 14.3082 26.9559 14.5266L26.265 15.219C26.2649 15.219 26.2648 15.2191 26.2648 15.2193L25.4736 16.0073C25.1646 16.315 25.1636 16.8149 25.4713 17.1238C25.779 17.4328 26.2789 17.4337 26.5878 17.1261L27.3827 16.3345C27.5999 16.1169 27.891 15.9971 28.2024 15.9971C28.5139 15.9971 28.805 16.1169 29.0239 16.3361C29.2415 16.5528 29.3613 16.8431 29.3613 17.1536C29.3613 17.464 29.2415 17.7543 29.0226 17.9722L27.6451 19.3503C27.3369 19.6587 27.337 20.1585 27.6453 20.4668C27.7995 20.6209 28.0015 20.6979 28.2035 20.6979C28.4056 20.6979 28.6077 20.6208 28.7618 20.4666L29.4369 19.7912C29.4408 19.7876 29.4449 19.7843 29.4488 19.7805C29.666 19.5629 29.9571 19.4431 30.2685 19.4431C30.58 19.4431 30.8711 19.5629 31.0891 19.7813C31.5401 20.2318 31.5398 20.9664 31.0891 21.4179L30.4027 22.1035C30.4025 22.1037 30.4022 22.1039 30.402 22.1042C30.4017 22.1044 30.4015 22.1047 30.4012 22.105L29.3118 23.193C29.0033 23.5012 29.003 24.0012 29.3111 24.3097C29.4653 24.464 29.6676 24.5413 29.8698 24.5413C30.0717 24.5413 30.2736 24.4643 30.4277 24.3104L30.9606 23.7781L33.5146 26.3292L26.2427 33.5922L23.6372 30.9898C23.8189 30.873 23.9927 30.7356 24.1558 30.5725L24.8579 29.8713C25.1666 29.5633 25.1669 29.0633 24.8587 28.7548V28.7548ZM38.1142 29.7326L29.6518 38.1848C29.4538 38.3825 29.1888 38.4914 28.9056 38.4914C28.6225 38.4914 28.3575 38.3825 28.1594 38.1847L26.7642 36.7912C26.5664 36.5938 26.4576 36.3295 26.4576 36.0472C26.4576 35.765 26.5664 35.5008 26.7642 35.3033L35.2266 26.8511C35.4246 26.6533 35.6896 26.5444 35.9728 26.5444C36.256 26.5444 36.521 26.6533 36.7195 26.8516L38.1143 28.2425C38.312 28.44 38.4209 28.7045 38.4209 28.9875C38.4208 29.2706 38.3119 29.5352 38.1142 29.7326V29.7326Z" fill="#3F4458"/>
<path d="M9.4458 4.43507C9.59993 4.58888 9.80173 4.66571 10.0035 4.66571C10.2058 4.66571 10.4081 4.58841 10.5624 4.43389C10.8704 4.12523 10.8699 3.62536 10.5613 3.31733L7.68418 0.445978C7.3756 0.137949 6.87565 0.138341 6.56762 0.447076C6.25959 0.755732 6.26006 1.2556 6.56872 1.56363L9.4458 4.43507Z" fill="#3F4458"/>
<path d="M29.8564 4.66568C30.0583 4.66568 30.2603 4.5887 30.4144 4.4348L33.2893 1.56337C33.5978 1.25526 33.5981 0.75531 33.2899 0.446811C32.9818 0.138312 32.4819 0.137998 32.1733 0.446184L29.2985 3.31762C28.99 3.62572 28.9897 4.12567 29.2978 4.43417C29.452 4.58854 29.6542 4.66568 29.8564 4.66568Z" fill="#3F4458"/>
<path d="M4.85492 33.9628C4.54924 34.2737 4.55348 34.7737 4.86449 35.0793L4.86676 35.0815C5.02019 35.2324 5.2194 35.3075 5.41853 35.3075C5.62292 35.3075 5.8273 35.2284 5.98214 35.0709C6.28782 34.7599 6.28241 34.2589 5.97148 33.9532C5.66063 33.6475 5.16076 33.6519 4.85492 33.9628V33.9628Z" fill="#3F4458"/>
<path d="M26.7896 27.6174C26.9097 27.6174 27.0315 27.59 27.1459 27.5324C27.5353 27.336 27.6917 26.8612 27.4954 26.4719C27.299 26.0825 26.8241 25.9261 26.4349 26.1225L26.4305 26.1246C26.0411 26.321 25.8869 26.7947 26.0832 27.184C26.2218 27.4591 26.5006 27.6174 26.7896 27.6174V27.6174Z" fill="#3F4458"/>
</svg>
