<svg width="40" height="45" viewBox="0 0 40 45" fill="none" xmlns="http://www.w3.org/2000/svg">
<path d="M29.5654 34.4349C29.0854 34.4349 28.6958 34.8245 28.6958 35.3045C28.6958 35.7845 29.0854 36.174 29.5654 36.174C30.0454 36.174 30.4349 35.7845 30.4349 35.3045C30.4349 34.8245 30.0454 34.4349 29.5654 34.4349Z" fill="#3F4458"/>
<path d="M31.7063 31.6229L27.5732 30.2455L26.0895 27.2779C27.4262 25.9174 28.3543 24.1172 28.6672 22.2396L28.8523 21.1304H30.4348C31.8732 21.1304 33.0435 19.9602 33.0435 18.5217V13.0435C33.0435 5.8513 27.1922 0 20 0C12.7894 0 6.95652 5.83452 6.95652 13.0435V18.5217C6.95652 19.6553 7.68357 20.6219 8.69565 20.9809V22C8.69565 23.4384 9.86591 24.6087 11.3043 24.6087H12.068C12.445 25.4276 12.9329 26.186 13.5266 26.8673C13.6497 27.0089 13.7782 27.1461 13.9097 27.2796L12.4268 30.2455L8.29365 31.623C3.488 33.2254 0 38.2844 0 43.6522C0 44.1324 0.389304 44.5217 0.869565 44.5217H39.1304C39.6106 44.5217 40 44.1324 40 43.6522C40 38.2844 36.5121 33.2254 31.7063 31.6229ZM31.3043 18.5217C31.3043 19.0012 30.9143 19.3913 30.4348 19.3913H29.1077C29.3287 17.6791 29.476 15.8571 29.5352 14.0626C29.537 14.012 29.5383 13.9628 29.5399 13.913H31.3043V18.5217ZM9.56522 19.3913C9.08574 19.3913 8.69565 19.0012 8.69565 18.5217V13.913H10.4607C10.4636 14.0037 10.4666 14.0949 10.47 14.1866C10.4701 14.1897 10.4703 14.1928 10.4703 14.1959C10.4703 14.1962 10.4703 14.1964 10.4703 14.1967C10.5312 15.9421 10.6766 17.7168 10.8926 19.3912H9.56522V19.3913ZM11.3043 22.8696C10.8249 22.8696 10.4348 22.4795 10.4348 22V21.1304H11.1477L11.3327 22.2399C11.368 22.4508 11.4114 22.6609 11.4616 22.8696H11.3043ZM10.4363 12.1739H8.7287C9.16913 6.346 14.0328 1.73913 20 1.73913C25.9407 1.73913 30.8257 6.34539 31.2712 12.1739H29.5638C29.5012 7.37157 25.5905 3.47826 20.7783 3.47826H19.2218C14.4097 3.47826 10.4988 7.37157 10.4363 12.1739ZM19.2217 5.21739H20.7783C24.6747 5.21739 27.8283 8.40444 27.8261 12.2965C27.8261 12.5702 27.8239 12.8084 27.8193 13.0252C27.8193 13.028 27.8192 13.0309 27.8192 13.0337L26.7316 12.8783C23.7768 12.4564 20.9869 11.0615 18.8757 8.95035C18.7126 8.7873 18.4915 8.69565 18.2609 8.69565C15.9256 8.69565 13.6901 9.75965 12.2123 11.5572C12.5765 8.01644 15.5698 5.21739 19.2217 5.21739ZM13.2643 22.8696C12.829 21.4215 12.331 17.1606 12.2209 14.4302L13.3912 12.8697C14.4661 11.437 16.1383 10.5468 17.9172 10.4446C20.2578 12.6721 23.2858 14.143 26.4857 14.5999L27.7658 14.7829C27.6803 16.599 27.5054 18.4214 27.2549 20.0975C27.2548 20.098 27.2547 20.0986 27.2546 20.0992C27.175 20.6381 27.1122 20.9849 26.9518 21.9535C26.4913 24.7157 24.4303 27.2135 21.7095 27.8937C20.5897 28.1733 19.4101 28.1732 18.291 27.8937C16.5921 27.469 15.0343 26.2936 14.029 24.6087H15.8017C16.1607 25.6208 17.1272 26.3478 18.2609 26.3478H20C21.4413 26.3478 22.6087 25.1805 22.6087 23.7391C22.6087 22.3007 21.4384 21.1304 20 21.1304H18.2609C17.102 21.1304 16.1497 21.879 15.8003 22.8696H13.2643ZM18.1877 29.6536C18.7842 29.7792 19.3923 29.8435 20 29.8435C20.4757 29.8435 20.9516 29.8037 21.422 29.7264L19.8855 31.3514L18.1877 29.6536ZM18.69 32.6156L15.9319 35.5323C15.1726 34.0789 14.5202 32.5663 13.985 31.0177L15.0208 28.9463L18.69 32.6156ZM24.8318 28.6517L26.0148 31.0177C25.4788 32.5688 24.8262 34.0819 24.0677 35.5336L21.1157 32.5816L24.8318 28.6517ZM17.3913 23.7391C17.3913 23.259 17.7807 22.8696 18.2609 22.8696H20C20.4795 22.8696 20.8696 23.2597 20.8696 23.7391C20.8696 24.2193 20.4801 24.6087 20 24.6087H18.2609C17.7814 24.6087 17.3913 24.2186 17.3913 23.7391ZM1.77391 42.7826C2.11852 38.4749 4.98539 34.5594 8.84365 33.2728L12.504 32.053C13.1746 33.9073 14.0054 35.7097 14.979 37.4217C14.9807 37.4246 14.9823 37.4276 14.9839 37.4304C14.9839 37.4305 14.984 37.4305 14.984 37.4306C15.6954 38.6818 16.4961 39.9045 17.3642 41.0653L18.4339 42.7826H1.77391ZM20 42.0075L18.8207 40.1142C18.8075 40.093 18.7934 40.0723 18.7784 40.0523C18.0743 39.113 17.4174 38.1307 16.8191 37.1252L19.9203 33.8457L23.1879 37.1134C22.5857 38.1262 21.9265 39.1126 21.2217 40.0522C21.1791 40.109 21.2396 40.0195 20 42.0075ZM21.5661 42.7826L22.6357 41.0654C23.5077 39.9002 24.3141 38.6677 25.0326 37.4017C25.037 37.3941 25.041 37.3863 25.0454 37.3786C25.0459 37.3777 25.0464 37.3768 25.047 37.3758C26.0083 35.6802 26.8303 33.8935 27.496 32.053L31.1563 33.2728C35.0146 34.5594 37.8815 38.4749 38.2261 42.7826H21.5661Z" fill="#3F4458"/>
<path d="M35.6124 39.264C35.0313 38.1008 34.1801 37.0674 33.1508 36.2755C32.7701 35.9826 32.2242 36.0538 31.9314 36.4345C31.6385 36.8152 31.7097 37.3611 32.0904 37.654C32.9124 38.2864 33.5923 39.1119 34.0565 40.0412C34.2716 40.4715 34.7942 40.6448 35.2231 40.4305C35.6526 40.2159 35.827 39.6936 35.6124 39.264Z" fill="#3F4458"/>
</svg>
