<svg width="50" height="50" viewBox="0 0 50 50" fill="none" xmlns="http://www.w3.org/2000/svg">
<mask id="mask0" mask-type="alpha" maskUnits="userSpaceOnUse" x="0" y="0" width="50" height="50">
<circle cx="25" cy="25" r="25" fill="#C4C4C4"/>
</mask>
<g mask="url(#mask0)">
<path d="M27.0342 36.9912C27.1986 36.9848 27.3795 36.9815 27.5786 36.9815C27.5786 36.9815 28.0505 35.6104 28.0768 35.5663C27.8121 35.4503 27.2628 35.161 27.0507 35.0287C27.1905 35.2362 27.5308 35.4748 27.4634 35.6578L27.0342 36.9912Z" fill="white"/>
<path d="M22.6593 30.9761C22.5853 30.9695 22.5227 31.0268 22.5179 31.0986C22.5129 31.1738 22.5688 31.2375 22.6445 31.2392C22.7168 31.2456 22.781 31.19 22.7875 31.1165C22.7875 31.0446 22.7349 30.9776 22.6593 30.9761Z" fill="#F3F4FA"/>
<path d="M31.5083 39.8182L30.7568 39.5323L30.964 38.7609L31.1926 37.9193C31.1926 37.9193 29.8606 38.6368 27.9842 39.176C27.4513 39.328 27.0485 39.3966 27.0485 39.3966V39.9686C27.0485 39.9686 26.0452 40.1418 25.0306 40.1418H25.0192H25.0044H24.9846H24.9731C23.9584 40.1418 22.9553 39.9686 22.9553 39.9686V39.3966C22.9553 39.3966 22.5508 39.328 22.0196 39.176C20.1432 38.6368 18.8128 37.9193 18.8128 37.9193L19.0381 38.7609L19.2503 39.5323L18.497 39.8182L17.6616 40.1288C18.6204 40.5879 19.9475 41.2579 21.1628 41.588L20.8767 42.3659C20.8767 42.3659 22.4175 43.0637 24.9846 43.0702V43.0718H24.9928H25.0044H25.0142H25.0209V43.0702C27.5911 43.0637 29.1303 42.3659 29.1303 42.3659L28.8426 41.588C30.0579 41.2579 31.3883 40.5879 32.3421 40.1288L31.5083 39.8182ZM18.553 40.181L19.7896 39.7725L19.4246 38.5877C19.9689 38.895 21.1908 39.3558 21.8979 39.5698L21.3009 41.199C20.209 40.9 19.2996 40.552 18.553 40.181ZM25.0044 42.6617C23.5688 42.6617 21.9291 42.3332 21.4473 42.1633L22.1807 40.1908C22.7892 40.3673 24.0555 40.5553 24.9747 40.5487H24.9764H25.0044H25.029H25.0323C25.9516 40.5553 27.2146 40.3673 27.8263 40.1908L28.5581 42.1633C28.0762 42.3348 26.4383 42.6617 25.0044 42.6617ZM28.7045 41.199L28.1092 39.5698C28.818 39.3558 30.0365 38.895 30.5824 38.5877L30.219 39.7725L31.454 40.181C30.7058 40.552 29.8013 40.9 28.7045 41.199Z" fill="#F3F4FA"/>
<path d="M25.0027 9.03074C26.5321 9.03074 27.7557 9.53409 28.4315 10.0717C28.4315 10.0717 28.6321 8.8706 29.3179 7.81004L28.0862 7.94892L27.4415 6.58765L26.2032 7.22174L25.0027 6.04187L23.8055 7.22174L22.5656 6.58765L21.9226 7.94892L20.6909 7.81004C21.3766 8.8706 21.5773 10.0717 21.5773 10.0717C22.2548 9.53409 23.475 9.03074 25.0027 9.03074ZM21.8667 8.42614L22.2088 8.4621L22.3567 8.15317L22.7877 7.23803L23.5868 7.64822L23.896 7.80516L24.1427 7.56328L25.0044 6.71351L25.8678 7.56328L26.1144 7.80516L26.4235 7.64822L27.2178 7.23803L27.6537 8.15317L27.7984 8.4621L28.1405 8.42614L28.466 8.3869C28.3164 8.72189 28.2063 9.03889 28.1273 9.30203C27.2656 8.82481 26.144 8.5536 25.0011 8.5536C23.8631 8.5536 22.7432 8.82481 21.8783 9.30203C21.7976 9.03889 21.6891 8.72029 21.5395 8.3869L21.8667 8.42614Z" fill="#F3F4FA"/>
<path d="M42.9461 24.9686C44.9245 24.9686 45.5856 22.9684 45.6135 22.8834L45.8339 22.1792L45.0921 22.202H45.0889C44.8274 22.202 42.6452 22.1448 41.0976 20.1903L40.9513 20.009C39.9399 18.731 38.9812 17.5169 37.2677 16.9629C37.317 16.9188 37.3878 16.8632 37.4848 16.8011C38.3941 16.2063 38.9237 15.484 39.0569 14.6456C39.2509 13.384 38.4419 12.379 38.4057 12.3381L37.8547 11.6616L37.5111 12.464C37.4881 12.5147 36.9092 13.7992 35.6922 13.7992H35.6018C35.518 13.7942 35.439 13.7909 35.3601 13.7845C35.4028 13.2108 35.2975 12.3234 34.4886 11.4917C33.5166 10.4899 32.3227 10.3396 31.6978 10.3396C31.364 10.3396 31.1419 10.3804 31.1189 10.3837L30.2867 10.5471L30.7999 11.2188C31.2028 11.7368 31.5679 12.6928 31.1354 13.1929C30.9972 13.3513 30.7128 13.4804 30.4398 13.6095C29.879 13.8661 29.1143 14.2224 29.1143 15.1309C29.1143 15.7192 29.5731 16.3337 30.4053 16.8566C32.8687 18.3961 34.3882 20.0024 35.0443 21.7755C36.059 24.5029 34.7351 26.0586 33.4492 26.8774L32.872 27.2466L33.3768 27.7075C33.4442 27.7664 34.0625 28.3073 34.9753 28.3857C35.1479 28.3971 35.314 28.407 35.4686 28.407C36.054 28.407 36.5524 28.3154 36.9569 28.1929C36.8451 28.3873 36.7085 28.585 36.5359 28.7844C35.8008 29.6309 34.8963 30.0165 33.5955 30.0362L33.1121 30.0444L33.0743 30.5265C33.0693 30.6228 33.0331 31.5168 33.885 32.2767C34.0149 32.3943 34.1727 32.4908 34.3372 32.5708C33.76 33.0872 33.1729 33.986 33.0595 35.527C32.964 36.813 32.655 37.2886 32.6516 37.2936L32.1171 38.1041L33.0825 38.1171C34.6775 38.1171 35.8995 37.6792 36.7463 36.813C37.2463 36.3 37.5325 35.7215 37.7018 35.2083C37.9797 35.4437 38.3383 35.6496 38.8053 35.7591C38.9829 35.7999 39.1769 35.8228 39.3858 35.8228C39.8364 35.8228 40.2129 35.728 40.2557 35.7182L40.8724 35.5548L40.5995 34.9828C40.5797 34.9371 40.065 33.7899 40.6192 32.1525C40.8576 31.4449 40.9793 30.8108 41.0385 30.3172C41.4266 30.5183 41.9463 30.6849 42.6188 30.6866C44.1449 30.6866 44.8176 29.5541 44.8488 29.5067L45.1498 28.9871L44.5923 28.7583C42.7735 28.0082 42.3705 25.9933 42.29 24.9017C42.4544 24.9327 42.6418 24.9621 42.854 24.9686H42.9461ZM44.3884 29.2404C44.3884 29.2404 43.8555 30.1604 42.6337 30.1604H42.6188C41.1519 30.1523 40.56 29.2632 40.56 29.2632C40.56 29.2632 40.6455 30.4203 40.1159 31.9809C39.4796 33.8617 40.1208 35.2067 40.1208 35.2067C40.1208 35.2067 39.7788 35.2982 39.3841 35.2982C39.2329 35.2982 39.075 35.2835 38.927 35.2443C37.7018 34.9551 37.396 33.847 37.396 33.847C37.396 33.847 37.5094 37.591 33.117 37.591H33.0825C33.0825 37.591 33.4689 37.068 33.584 35.5629C33.7928 32.7849 35.6857 32.4041 35.6857 32.4041C35.6857 32.4041 34.676 32.2783 34.2385 31.8877C33.5544 31.2717 33.6021 30.5591 33.6021 30.5591C35.1479 30.5379 36.1593 30.015 36.9305 29.1276C37.766 28.1667 37.9041 27.1323 37.9041 27.1323C37.9041 27.1323 37.0736 27.8808 35.4669 27.8808C35.3255 27.8808 35.1742 27.8742 35.0197 27.8595C34.2599 27.7991 33.7337 27.3186 33.7337 27.3186C35.4061 26.2531 36.5802 24.3935 35.5394 21.5924C34.7056 19.3487 32.7025 17.6721 30.6864 16.4088C30.0155 15.9922 29.6422 15.5297 29.6422 15.1309C29.6422 14.193 30.9841 14.1635 31.5349 13.5327C32.1698 12.8007 31.7718 11.6126 31.2209 10.8985C31.2209 10.8985 31.4067 10.8608 31.6995 10.8608C32.2799 10.8608 33.2847 11.0063 34.1103 11.856C35.2071 12.9836 34.7516 14.2109 34.7516 14.2109L35.046 14.2681C35.2219 14.3057 35.3963 14.3122 35.5772 14.3204C35.6167 14.3204 35.656 14.3221 35.6955 14.3221C37.289 14.3221 38.0011 12.6667 38.0011 12.6667C38.0011 12.6667 39.695 14.7371 37.2019 16.3581C36.7727 16.636 36.5836 16.8926 36.6329 17.1671L36.6723 17.3469L36.8499 17.3779C38.6573 17.8649 39.5717 19.1037 40.6883 20.5123C42.3837 22.6547 44.783 22.7233 45.0791 22.7233H45.1103C45.1103 22.7233 44.5627 24.4408 42.9494 24.4408C42.9231 24.4408 42.9001 24.4408 42.8721 24.4392C42.1304 24.413 41.7506 24.1303 41.7506 24.1303C41.7506 24.1303 41.4594 28.031 44.3884 29.2404Z" fill="#F3F4FA"/>
<path d="M39.4711 17.1787C40.2095 17.5693 40.6388 18.0922 41.0153 18.5563C41.3854 19.009 41.7373 19.4453 42.2865 19.6267C42.4822 19.6937 42.6895 19.7247 42.8999 19.7247C43.7256 19.7247 44.5542 19.223 44.8685 18.5285L45.1842 17.8324L44.4194 17.7866C44.3833 17.785 43.3999 17.6967 42.3046 16.5839C41.854 16.128 41.3097 15.8877 40.7226 15.8877C40.0056 15.8877 39.4744 16.244 39.4153 16.2799L38.7114 16.7718L39.4711 17.1787ZM40.7243 16.4139C41.0927 16.4139 41.5219 16.5382 41.9281 16.9548C43.2025 18.241 44.3881 18.3128 44.3881 18.3128C44.1727 18.7867 43.5479 19.2035 42.9015 19.2035C42.7519 19.2035 42.6023 19.1805 42.4526 19.1299C41.5761 18.8357 41.262 17.5284 39.7211 16.7146C39.7211 16.7146 40.152 16.4139 40.7243 16.4139Z" fill="#F3F4FA"/>
<path d="M39.8165 24.1222V24.1483C39.3725 20.5891 36.7709 18.0185 33.8766 16.4546C33.6085 16.3124 33.3618 16.1916 33.1218 16.0755C34.0032 16.2111 35.4223 16.2275 36.5176 15.283C36.5176 15.283 34.8418 16.5086 31.4082 15.3957C32.3587 16.0085 34.2054 16.8731 35.8911 18.2735C40.1059 21.9537 37.0898 25.5439 37.0898 25.5439C38.6045 23.9734 38.6669 22.2903 38.2213 20.916C39.0189 22.2347 39.5287 23.8362 39.4497 25.8103C39.333 28.639 37.7691 31.0854 36.1229 33.0512C35.3319 34.0056 35.1544 35.1773 35.1544 35.1773C35.1544 35.1773 35.4733 34.1428 36.3893 33.079C38.1539 31.0265 39.6618 28.8939 39.8592 25.8217C40.0418 26.379 40.7933 27.9298 41.9855 28.5132C41.9888 28.5148 40.4907 27.6176 39.8165 24.1222Z" fill="#F3F4FA"/>
<path d="M17.3542 37.2918C17.3525 37.2869 17.0467 36.8113 16.948 35.5253C16.8328 33.9842 16.2474 33.0855 15.6686 32.5691C15.8363 32.4907 15.9909 32.3943 16.1208 32.2749C16.9711 31.515 16.9349 30.6211 16.9299 30.5248L16.8971 30.0427L16.4103 30.0345C15.1127 30.0133 14.2066 29.6276 13.4715 28.7827C13.3005 28.5833 13.1624 28.3855 13.0505 28.1911C13.4551 28.3137 13.9501 28.4052 14.5372 28.4052C14.695 28.4052 14.8578 28.3954 15.0305 28.384C15.9432 28.3055 16.5616 27.7662 16.6306 27.7057L17.1355 27.2449L16.5583 26.8757C15.2674 26.0553 13.9484 24.4995 14.9614 21.7737C15.6176 20.0007 17.1355 18.3944 19.6022 16.8549C20.4343 16.332 20.8899 15.7175 20.8899 15.1292C20.8899 14.2206 20.1268 13.8628 19.5661 13.6078C19.2931 13.4787 19.0086 13.3496 18.8704 13.1912C18.4363 12.6927 18.803 11.7351 19.2043 11.2171L19.7206 10.5454L18.8852 10.382C18.8606 10.3787 18.6419 10.3379 18.3063 10.3379C17.6815 10.3379 16.4908 10.4882 15.5173 11.4899C14.7066 12.3234 14.5996 13.2107 14.6408 13.7827C14.5618 13.7892 14.483 13.7924 14.4007 13.7975H14.3119C13.0917 13.7975 12.5145 12.513 12.4915 12.4623L12.1478 11.6599L11.5918 12.3364C11.5606 12.3773 10.7483 13.384 10.9456 14.6439C11.0772 15.4822 11.6067 16.2045 12.5161 16.7993C12.6148 16.8614 12.6838 16.9171 12.7332 16.9612C11.0212 17.5152 10.0642 18.7309 9.05274 20.0089L8.90642 20.1902C7.3606 22.1447 5.17345 22.2019 4.91199 22.2019L4.16699 22.1791L4.39393 22.8833C4.42022 22.9683 5.07968 24.9685 7.05964 24.9685L7.15506 24.9652C7.36391 24.9588 7.55135 24.931 7.71916 24.8983C7.63691 25.9882 7.234 28.0032 5.41349 28.7549L4.85771 28.9837L5.15867 29.5033C5.18824 29.5507 5.86253 30.6832 7.39187 30.6832C8.05946 30.6816 8.57913 30.5149 8.96887 30.314C9.0281 30.8075 9.14977 31.4415 9.38827 32.1491C9.94244 33.7865 9.42617 34.9337 9.40637 34.9795L9.13345 35.5514L9.75168 35.7148C9.79281 35.7247 10.1727 35.8194 10.6217 35.8194C10.8321 35.8194 11.0262 35.7966 11.2006 35.7557C11.6692 35.6462 12.0309 35.4403 12.3056 35.205C12.4733 35.7181 12.7612 36.2966 13.2594 36.8098C14.108 37.6758 15.3282 38.1138 16.9233 38.1138L17.8903 38.1007L17.3542 37.2918ZM16.8871 37.5909C12.4947 37.5909 12.6066 33.847 12.6066 33.847C12.6066 33.847 12.3006 34.9549 11.0755 35.2443C10.9292 35.2834 10.7729 35.2981 10.6201 35.2981C10.2253 35.2981 9.88491 35.2066 9.88491 35.2066C9.88491 35.2066 10.523 33.8617 9.88653 31.9808C9.36032 30.4202 9.4458 29.2631 9.4458 29.2631C9.4458 29.2631 8.85544 30.1522 7.38694 30.1602H7.37215C6.15023 30.1602 5.6174 29.2402 5.6174 29.2402C8.54463 28.0326 8.25684 24.1334 8.25684 24.1334C8.25684 24.1334 7.87703 24.4146 7.13365 24.4423C7.10739 24.444 7.08267 24.444 7.05641 24.444C5.44151 24.444 4.89552 22.7265 4.89552 22.7265H4.92837C5.22605 22.7265 7.62213 22.6578 9.31758 20.5154C10.4341 19.1068 11.3502 17.8697 13.1542 17.3811L13.3351 17.3501L13.3745 17.1703C13.4239 16.8958 13.2364 16.6392 12.8072 16.3614C10.3141 14.7387 12.0079 12.6698 12.0079 12.6698C12.0079 12.6698 12.7167 14.3236 14.3136 14.3236C14.353 14.3236 14.3891 14.322 14.4303 14.322C14.6096 14.3121 14.7872 14.3056 14.9614 14.268L15.2558 14.2108C15.2558 14.2108 14.8003 12.9835 15.8989 11.856C16.7244 11.0046 17.7292 10.8608 18.308 10.8608C18.6024 10.8608 18.785 10.8984 18.785 10.8984C18.2356 11.6141 17.8377 12.8005 18.4725 13.5327C19.0217 14.1618 20.362 14.1929 20.362 15.1309C20.362 15.528 19.9887 15.992 19.3177 16.4088C17.2999 17.6721 15.2969 19.3487 14.4648 21.5923C13.4255 24.3934 14.5981 26.2514 16.2738 27.3185C16.2738 27.3185 15.7475 27.799 14.9861 27.8594C14.8316 27.8741 14.6819 27.8806 14.5372 27.8806C12.9321 27.8806 12.1017 27.1322 12.1017 27.1322C12.1017 27.1322 12.2398 28.1666 13.0703 29.1275C13.8465 30.0148 14.8578 30.5378 16.4037 30.559C16.4037 30.559 16.453 31.2715 15.7689 31.8876C15.3298 32.2765 14.3202 32.404 14.3202 32.404C14.3202 32.404 16.2146 32.7847 16.4218 35.5628C16.5353 37.0679 16.9184 37.5909 16.9184 37.5909H16.8871Z" fill="#F3F4FA"/>
<path d="M7.10412 19.7268C7.3162 19.7268 7.52343 19.6958 7.7192 19.6287C8.27166 19.4473 8.62198 19.011 8.99202 18.5584C9.37021 18.0943 9.79616 17.5713 10.5345 17.1807L11.2942 16.7754L10.5888 16.2836C10.5296 16.246 10.0001 15.8914 9.28473 15.8914C8.69599 15.8914 8.15007 16.13 7.70102 16.5876C6.60586 17.6988 5.62414 17.7887 5.58786 17.7903L4.82324 17.8344L5.1373 18.5322C5.45302 19.2234 6.28018 19.7268 7.10412 19.7268ZM8.07768 16.9569C8.48552 16.5402 8.9147 16.4159 9.28473 16.4159C9.85368 16.4159 10.2846 16.7166 10.2846 16.7166C8.74528 17.5321 8.42953 18.8377 7.54977 19.132C7.40507 19.1826 7.25375 19.2055 7.10412 19.2055C6.45785 19.2055 5.83291 18.7904 5.61913 18.3148C5.61913 18.3132 6.80316 18.2413 8.07768 16.9569Z" fill="#F3F4FA"/>
<path d="M10.556 25.8124C10.4737 23.8382 10.9836 22.2368 11.7827 20.918C11.3371 22.2923 11.398 23.9755 12.9142 25.546C12.9142 25.546 9.89822 21.9558 14.1147 18.2755C15.802 16.8751 17.647 16.0106 18.5959 15.3978C15.1639 16.5107 13.4882 15.285 13.4882 15.285C14.5834 16.2296 16.0026 16.2132 16.884 16.0759C16.6456 16.1919 16.3956 16.313 16.1308 16.4551C13.2332 18.019 10.6333 20.5896 10.1877 24.1487V24.1209C9.51501 27.6165 8.01855 28.5136 8.01855 28.5136C9.20921 27.9302 9.95905 26.3811 10.1416 25.8221C10.3406 28.8944 11.8486 31.0269 13.6131 33.0795C14.5291 34.1434 14.8514 35.1777 14.8514 35.1777C14.8514 35.1777 14.6721 34.0061 13.8779 33.0517C12.235 31.0891 10.6711 28.6411 10.556 25.8124Z" fill="#F3F4FA"/>
<path d="M24.0112 18.6099V19.3158C24.2564 19.02 24.73 19.0805 24.73 19.0805V20.0986C24.73 20.0986 24.7135 20.5986 24.5343 20.816H25.0472H25.5587C25.3828 20.6002 25.3647 20.0986 25.3647 20.0986V19.0805C25.3647 19.0805 25.8383 19.02 26.0817 19.3158V18.6099H25.0472H24.0112Z" fill="#F3F4FA"/>
<path d="M23.5702 14.4237C23.8974 14.6819 24.0866 14.7244 24.0931 14.7292L24.2214 14.7881V14.123L23.0176 13.6196C23.0176 13.6213 23.0291 14.0053 23.5702 14.4237Z" fill="#F3F4FA"/>
<path d="M26.4338 14.4237C26.9781 14.0053 26.9879 13.6196 26.9879 13.6196L25.7842 14.123V14.7881L25.9109 14.7292C25.9191 14.7244 26.1065 14.6819 26.4338 14.4237Z" fill="#F3F4FA"/>
<path d="M28.6021 11.7156C28.6021 10.7074 26.8934 9.80042 25.0072 9.80042H25.0056H25.0006H24.9956C23.1094 9.80042 21.4009 10.7074 21.4009 11.7156L21.4387 11.9641L22.1918 16.2603L21.4354 16.6966L19.4784 17.8323H19.4849C19.4849 17.8323 19.0443 18.0562 18.8404 18.1951C18.0954 18.7099 17.9375 19.4599 18.3701 19.7705C18.477 19.1592 18.9637 18.5187 19.8748 18.5187C20.5309 18.5187 21.0308 18.8554 21.4354 19.3603C21.539 19.4877 21.6376 19.6234 21.7297 19.7705C21.8432 19.9551 21.9567 20.1169 22.0702 20.2738H17.0298C17.3998 21.014 17.7517 21.7984 17.7517 22.6499V33.736C17.7517 36.4193 19.8287 37.7005 22.0751 37.7005C23.8117 37.7005 24.0452 37.6222 25.0039 38.5699C25.9576 37.6205 26.1912 37.7005 27.9294 37.7005C30.1775 37.7005 32.2511 36.4193 32.2511 33.736V22.6499C32.2511 21.7984 32.6031 21.014 32.9747 20.2738H27.9328C28.0446 20.1186 28.158 19.9551 28.2716 19.7705C28.3652 19.6234 28.4622 19.4877 28.5643 19.3603C28.9721 18.8537 29.4703 18.5187 30.1265 18.5187C31.0375 18.5187 31.5226 19.1576 31.6312 19.7705C32.0637 19.4599 31.9075 18.7099 31.1576 18.1951C30.957 18.0562 30.5162 17.8323 30.5162 17.8323H30.5228L28.5659 16.6966L27.8127 16.2603L28.5659 11.9641L28.6021 11.7156ZM22.1425 12.2157L24.7902 13.1079V17.2408L22.8414 16.2195L22.1425 12.2157ZM22.6901 20.9944C23.1242 21.4242 23.5502 21.6906 23.9548 21.8377C23.9021 22.0452 23.833 22.4734 24.0287 22.8999C24.1883 23.243 24.4777 23.5078 24.8937 23.6843C24.9398 24.1092 25.2095 24.7481 25.9576 25.0309C25.6304 25.3593 25.3114 25.6681 25.1815 25.794L22.1474 25.7466C22.0784 25.7122 21.9616 25.6355 21.909 25.526C21.9024 25.5113 21.8925 25.5031 21.8876 25.4867L22.3826 25.5668C22.3942 25.5685 22.4039 25.5685 22.4139 25.5685C22.5092 25.5685 22.5931 25.5031 22.6095 25.4051C22.626 25.2956 22.552 25.1959 22.4451 25.1795L21.8367 25.0848L22.5125 22.7659L21.8728 21.4275L20.8466 22.506L20.7842 24.9181L20.0951 24.8102C19.9881 24.789 19.8862 24.8674 19.8682 24.9737C19.8517 25.0799 19.9241 25.1795 20.0326 25.1992L20.322 25.2433C20.2185 25.3021 20.151 25.3478 20.1428 25.3544L20.0836 25.3953L20.0671 25.4672C19.8994 26.1437 20.2793 26.786 20.6888 27.0735L20.6739 27.1586C20.6576 27.2631 20.6805 27.3644 20.743 27.4494C20.8022 27.5361 20.8943 27.5883 20.9963 27.6063C21.0177 27.6096 21.0407 27.6112 21.0604 27.6112C21.238 27.6112 21.3926 27.4886 21.437 27.3106C21.5899 27.3284 21.7297 27.3317 21.825 27.3317H21.9057L25.887 28.0459L25.9544 28.0017C26.2718 27.7811 27.4805 26.9052 27.8768 26.616C27.9854 26.7091 28.1071 26.794 28.2551 26.8644C28.1268 27.2925 28.1185 27.9511 28.6266 28.4708H18.4802V22.6514C18.4802 22.0877 18.3141 21.5207 18.1184 20.9978H22.6901V20.9944ZM27.6104 26.3185C27.2075 26.6127 26.1715 27.3644 25.7965 27.6259L22.1787 26.9804C22.1869 26.9477 22.1951 26.9167 22.2033 26.884C22.2511 26.6977 22.2987 26.4428 22.302 26.1437L25.3426 26.1928L25.4002 26.1339C25.4463 26.0882 26.4099 25.1632 26.9016 24.6304C27.0184 24.7759 27.1648 24.9149 27.3556 25.0374C27.2898 25.3904 27.3177 25.8937 27.6104 26.3185ZM21.5537 25.696C21.6393 25.8741 21.7939 25.9934 21.9007 26.0604C21.8975 26.227 21.881 26.4869 21.8367 26.7157C21.8267 26.7663 21.8136 26.8138 21.7988 26.8611C21.7905 26.8905 21.7824 26.9151 21.7758 26.9346C21.6163 26.9346 21.3021 26.9151 21.0456 26.8219C20.7612 26.7173 20.3368 26.1992 20.4355 25.6289C20.5588 25.5538 20.8433 25.3953 21.1097 25.3953C21.3153 25.3937 21.4551 25.49 21.5537 25.696ZM21.1772 24.9785L21.238 22.6629L21.761 22.1122L22.0899 22.7953L21.4419 25.0177L21.1772 24.9785ZM27.5775 36.9832C27.3802 36.9832 27.1977 36.9865 27.0332 36.9929L27.464 35.6611C27.5315 35.4764 27.191 35.2395 27.0513 35.0319C27.2634 35.1643 27.8127 35.4535 28.0775 35.5696C28.0495 35.6121 27.5775 36.9832 27.5775 36.9832ZM28.9293 35.4699L28.6481 36.9276C28.4688 36.9521 28.2781 36.9652 28.0824 36.9733L28.3784 35.5712C28.4672 35.1545 27.3407 35.0254 26.7849 34.2067C26.5136 34.5106 26.0021 34.6005 25.489 34.6005C25.0203 34.6005 24.5517 34.5253 24.2671 34.4698C24.1948 34.4584 24.1257 34.4502 24.0583 34.4502C23.8938 34.4502 23.7442 34.5009 23.6406 34.6741L23.5584 34.8113L22.0241 34.4517L21.6425 35.0793C21.5883 35.1807 21.585 35.2673 21.6722 35.362L21.7758 35.4747C21.7051 35.697 21.3861 36.0321 21.3861 36.0321L21.1574 35.7494C20.9765 35.5483 21.0061 35.1824 21.1953 34.8424L21.8037 33.8211L23.1029 34.0073L22.9006 33.5498C22.6293 32.9451 23.042 32.1754 23.0864 31.7325C23.0716 31.8665 22.9483 31.896 22.8035 31.896C22.6721 31.896 22.5257 31.8715 22.4286 31.8715C22.3908 31.8715 22.3579 31.8747 22.3399 31.8878L21.9879 32.1002L21.7099 31.8568C21.6771 31.8094 21.6656 31.6998 21.7478 31.6181L22.3908 30.9024L21.6311 30.0216L22.695 30.5527L23.019 30.1621C23.1078 30.2488 23.07 30.4759 23.07 30.4759C23.4021 30.484 24.333 30.9956 24.3823 32.1885C24.3856 32.2244 24.3856 32.2653 24.3856 32.3045C24.3856 32.3045 24.3939 32.3192 24.4102 32.3438C24.476 32.4337 24.6569 32.664 24.8871 32.6853L26.3573 32.8292H26.3639C26.525 32.8292 26.8457 32.6412 27.2569 32.6412C27.4805 32.6412 27.7305 32.6984 27.9969 32.865C27.9969 32.865 28.1301 32.7605 28.3472 32.7489C28.3637 32.7474 28.3817 32.7474 28.3982 32.7474C29.0576 32.7474 29.3306 33.339 29.6842 33.8308C29.9505 34.205 30.3057 34.7607 30.3057 34.7607C30.1742 34.9159 30.0525 35.0009 29.8486 35.0009C29.7927 35.0009 29.7285 34.996 29.6594 34.983C28.9523 34.8538 28.8504 33.4092 28.4474 33.2949C28.4261 33.2883 28.4031 33.2867 28.3834 33.2867C28.2534 33.2867 28.1959 33.401 28.1959 33.401C28.38 33.893 28.2732 34.0923 28.4705 34.4715C28.6186 34.7524 28.8816 34.9846 28.9901 35.094C28.9901 35.0973 28.9606 35.3098 28.9293 35.4699ZM21.0341 34.0907L21.1015 34.259C21.0571 34.4061 20.5473 34.6152 20.5473 34.6152L20.4372 34.3767C20.3203 34.1218 20.3451 33.6919 20.7003 33.4288L21.5258 32.9288L22.4007 33.1135C22.3842 33.3896 22.5503 33.5956 22.5503 33.5956L21.6327 33.4206L21.0834 33.7981C20.9913 33.8619 20.9848 33.9812 21.0341 34.0907ZM29.0675 36.8475L29.319 35.5434C29.3322 35.4667 29.3486 35.3767 29.3602 35.3016C29.4309 35.331 29.5065 35.3555 29.5888 35.3702C29.6825 35.3881 29.7696 35.3964 29.8486 35.3964C30.2334 35.3964 30.457 35.1954 30.6067 35.0238L30.8007 34.7999L30.6428 34.5547C30.6281 34.5303 30.2794 33.9812 30.0097 33.6053C29.9572 33.5317 29.9061 33.4582 29.8551 33.3782C29.5493 32.9239 29.1661 32.3536 28.3982 32.3536L28.3291 32.3551C28.2025 32.3633 28.0939 32.3879 28.0067 32.4205C27.765 32.3078 27.5167 32.2506 27.2586 32.2506C26.9411 32.2506 26.6731 32.3372 26.4955 32.3977C26.4445 32.4124 26.3984 32.4287 26.3622 32.4352L24.9266 32.2947C24.9085 32.2914 24.8493 32.2571 24.7786 32.1721V32.1656L25.0894 32.0414C25.0023 31.0135 24.009 30.3811 23.4547 30.167C23.4302 30.0641 23.3808 29.9612 23.2936 29.8778L22.9844 29.5869L22.7131 29.9105L22.58 30.0755L20.5703 29.2552L21.8777 30.886L21.3614 31.6623C21.1722 31.8617 21.3811 32.0611 21.3811 32.0611L21.9138 32.4254L22.4665 32.2212C22.4862 32.2212 22.5027 32.226 22.5208 32.2277C22.4944 32.311 22.4599 32.6379 22.4369 32.7294L21.4781 32.5415L20.47 33.1069C19.952 33.4844 19.8813 34.1102 20.0737 34.5384L20.1855 34.7819L20.3451 35.1251L20.6969 34.9796C20.7019 34.9779 20.7069 34.9764 20.7101 34.9731C20.5835 35.3751 20.6346 35.7575 20.8614 36.0091L21.0752 36.2772L21.3597 36.6351L21.6722 36.3017C21.7642 36.2102 22.0619 35.8784 22.154 35.5941L22.2215 35.3767L22.0685 35.2101L22.0438 35.1807L22.2148 34.8996L23.4663 35.192L23.7474 35.2558L23.8972 35.0107L23.9794 34.8766C23.9942 34.8489 23.9991 34.844 24.0566 34.844C24.1011 34.844 24.1455 34.8489 24.1932 34.8588C24.6651 34.947 25.1009 34.9911 25.4874 34.9911C25.8623 34.9911 26.0859 34.9764 26.3541 34.8882C26.3541 34.8882 27.0266 35.6463 27.0496 35.6758L26.6386 36.9373L26.6204 37.0142C25.841 37.0762 25.4611 37.2462 25.0023 37.7022C24.3362 37.0453 23.8643 36.9766 22.0734 36.9766C19.9306 36.9766 18.4785 35.7281 18.4785 33.7345V28.8597H31.5226L31.526 33.7345C31.5276 35.3522 30.5722 36.4798 29.0675 36.8475ZM31.8878 20.9944C31.6887 21.5174 31.5226 22.0844 31.5226 22.6482L31.5243 26.2859C30.7597 26.1584 30.6692 25.3397 30.6659 25.3037L30.6511 25.1371L30.4867 25.1223C30.1545 25.0912 29.9341 24.9508 29.7482 24.771C29.3733 24.3984 29.3716 23.7938 29.3733 23.7889C29.3684 23.8199 28.9606 24.387 29.4342 25.0063C29.6332 25.2678 29.9209 25.4279 30.2942 25.4917C30.3814 25.946 30.7218 26.5866 31.5243 26.6846V28.4659H29.2681C28.2271 27.8906 28.6678 26.8774 28.6892 26.835L28.778 26.6421L28.5791 26.567C27.4526 26.1518 27.7617 25.0341 27.7782 24.9868L27.8242 24.8233L27.6713 24.7514C26.7404 24.3233 26.8671 23.168 26.8786 23.1204C26.5925 23.3509 26.4889 23.8216 26.6862 24.2824C26.5793 24.4034 26.4363 24.5503 26.2801 24.7105C25.3164 24.467 25.2868 23.5862 25.2868 23.5454L25.2851 23.4098L25.1585 23.3607C24.7819 23.2218 24.5237 23.0143 24.3971 22.7348C24.254 22.4259 24.305 22.1024 24.3444 21.9472C24.4546 21.9716 24.5648 21.9897 24.6701 21.9978C24.7786 22.0092 24.8904 22.0158 25.0023 22.0158H25.0089H25.0171C25.1289 22.0158 25.2391 22.0092 25.3476 21.9978C25.9479 21.939 26.6204 21.6824 27.3209 20.9927H31.8878V20.9944ZM28.3718 17.3175L29.2631 17.8323H29.2763L29.4999 17.9615C28.9967 18.1003 28.6119 18.3504 28.2896 18.6788C28.2781 18.6887 28.2665 18.7017 28.2551 18.7132C28.1811 18.7916 28.1071 18.8766 28.038 18.9631C28.0249 18.9795 28.0116 18.9975 27.9969 19.0155C27.9278 19.1037 27.8637 19.1936 27.8012 19.2884C27.7913 19.3047 27.7798 19.3211 27.7683 19.3358C27.6944 19.4452 27.6236 19.5629 27.5528 19.6838C26.9181 20.7706 25.905 21.4193 25.0039 21.421C24.1044 21.4193 23.0914 20.7706 22.4566 19.6838C22.3874 19.5663 22.3184 19.4518 22.2444 19.3406C22.2296 19.3194 22.2165 19.2982 22.2033 19.2802C22.1409 19.1903 22.0784 19.1021 22.0142 19.0187C21.9978 18.9959 21.983 18.9779 21.9665 18.9583C21.8975 18.8749 21.8267 18.7916 21.756 18.7148C21.7412 18.7034 21.7314 18.6887 21.7166 18.6755C21.3926 18.3471 21.0094 18.0986 20.5046 17.9615L20.7315 17.8323H20.7414L21.6327 17.3175L22.5487 16.7963L24.9956 18.1199L25.0006 18.115L25.0072 18.1199L27.4542 16.7963L28.3718 17.3175ZM27.1648 16.221L25.2143 17.2423V13.1079L27.8603 12.2157L27.1648 16.221ZM25.0023 12.6537L22.1014 11.5146C22.3481 10.9345 23.486 10.441 25.0023 10.4394C26.5201 10.441 27.6581 10.9345 27.9031 11.5146L25.0023 12.6537Z" fill="#F3F4FA"/>
</g>
</svg>
