<svg width="30" height="21" viewBox="0 0 30 21" fill="none" xmlns="http://www.w3.org/2000/svg">
<path d="M15.0186 20.9302H14.9886C14.8957 20.9302 5.59886 20.9123 3.25329 20.2775C1.96349 19.9312 0.956213 18.9267 0.609476 17.641C0.187692 15.2695 -0.0159862 12.8646 0.000978412 10.4562C-0.00991888 8.04379 0.19927 5.63543 0.625962 3.26083C0.982229 1.97399 1.98508 0.964878 3.27278 0.597494C5.55389 0 14.5944 0 14.9781 0H15.0096C15.104 0 24.4248 0.0179248 26.7464 0.652763C28.0335 1.00082 29.0387 2.00324 29.3872 3.28622C29.8224 5.66655 30.0267 8.08311 29.9972 10.5025C30.0077 12.9119 29.798 15.3173 29.3707 17.6888C29.0195 18.9729 28.0116 19.9752 26.7224 20.3223C24.4443 20.9243 15.4023 20.9302 15.0186 20.9302ZM12.0211 5.98241L12.0136 14.9448L19.8251 10.4636L12.0211 5.98241Z" fill="#F3F4FA"/>
</svg>
